<svg xmlns="http://www.w3.org/2000/svg" xmlns:xlink="http://www.w3.org/1999/xlink" version="1.1" x="0px" y="0px" viewBox="0 0 32 40" enable-background="new 0 0 32 32" xml:space="preserve"><path d="M29.9972534,15.0274048C29.9973145,15.0180664,30,15.0093994,30,15h-0.0061035  c0.000061-0.0525513-0.0018311-0.1055908-0.0192871-0.1582031L26.6375732,4.8306274l1.0059814-0.3018188  c0.2646484-0.0795898,0.4150391-0.3583984,0.3349609-0.6225586c-0.0791016-0.2646484-0.3583984-0.4145508-0.6220703-0.3354492  l-10.1906738,3.057373l-0.1668091-3.673584C16.9746704,2.4205322,16.534668,2,16,2  c-0.5346069,0-0.9746704,0.4205322-0.9989624,0.9545898l-0.1992188,4.3828125L4.3564453,10.4711914  c-0.2646484,0.0795898-0.4150391,0.3583984-0.3349609,0.6225586C4.0859375,11.3105469,4.2851562,11.4501953,4.5,11.4501953  c0.0478516,0,0.0957031-0.0068359,0.1435547-0.0209961l0.5770874-0.1731567l-3.1952515,9.5857544  C2.0079346,20.8944092,2.0060425,20.9474487,2.0061035,21H2c0,0.0093994,0.0026855,0.0180664,0.0027466,0.0274048  c0.0005493,0.0089722,0.0016479,0.0172119,0.0026245,0.026123C2.03479,23.2374268,3.8092041,25,6,25  c2.1908569,0,3.96521-1.7625732,3.9946289-3.9464722c0.0009766-0.0089111,0.0020752-0.0171509,0.0026245-0.026123  C9.9973145,21.0180664,10,21.0093994,10,21H9.9938965c0.000061-0.0525513-0.0018311-0.1055908-0.0192871-0.1582031  L6.6376343,10.8309326l8.1160889-2.4349365l-0.7526855,16.5585938l-0.0003052,0.2984619  C12.7418823,25.5834351,11.7693481,26.2182007,11.3061523,27H9.5C8.6715698,27,8,27.6715698,8,28.5V30h16v-1.5  c0-0.8284302-0.6715698-1.5-1.5-1.5h-1.8061523C20.2307129,26.2183228,19.2585449,25.5838013,18,25.2532959V25L17.2125244,7.6583252  l8.0082397-2.4026489l-3.1953735,9.5861206C22.0079346,14.8944092,22.0060425,14.9474487,22.0061035,15H22  c0,0.0093994,0.0026855,0.0180664,0.0027466,0.0274048c0.0005493,0.0089722,0.0016479,0.0172119,0.0026245,0.026123  C22.03479,17.2374268,23.8092041,19,26,19c2.1908569,0,3.96521-1.7625732,3.9946289-3.9464722  C29.9956055,15.0446167,29.9967041,15.036377,29.9972534,15.0274048z M6,24c-1.303772,0-2.4158936-0.8359375-2.8286133-2h5.6572876  C8.4159546,23.1640625,7.303772,24,6,24z M3.0273438,21L6,12.0810547L8.9726562,21H3.0273438z M22.5,28  c0.2756958,0,0.5,0.2243042,0.5,0.5V29H9v-0.5C9,28.2243042,9.2243042,28,9.5,28H22.5z M12.6016235,27  C13.2940674,26.4368896,14.5272217,26,16,26s2.7059937,0.4368896,3.3983765,1H12.6016235z M16,25  c-0.3425293,0-0.6768188,0.0211182-1,0.0604858V25l1-22l1,22v0.0604858C16.6768188,25.0211182,16.3425293,25,16,25z M26,6.0810547  L28.9726562,15h-5.9453125L26,6.0810547z M26,18c-1.303772,0-2.4158936-0.8359375-2.8286133-2h5.6572876  C28.4159546,17.1640625,27.303772,18,26,18z"/><text x="0" y="47" fill="#000000" font-size="5px" font-weight="bold" font-family="'Helvetica Neue', Helvetica, Arial-Unicode, Arial, Sans-serif">Created by Musket</text><text x="0" y="52" fill="#000000" font-size="5px" font-weight="bold" font-family="'Helvetica Neue', Helvetica, Arial-Unicode, Arial, Sans-serif">from the Noun Project</text></svg>